<svg width="305" height="109" viewBox="0 0 305 109" fill="none" xmlns="http://www.w3.org/2000/svg">
<path d="M55.7 107H77.75V84.35H91.85V65.6H77.75V1.24999H58.25L0.65 68L4.4 84.35H55.7V107ZM27.8 65.6L55.7 32.9V65.6H27.8ZM154.018 108.8C182.068 108.8 200.818 84.95 200.818 54.5C200.818 23.75 182.068 0.199998 154.318 0.199998C126.418 0.199998 107.518 24.05 107.518 54.5C107.518 85.25 125.968 108.8 154.018 108.8ZM154.318 87.95C140.368 87.95 131.218 73.7 131.218 54.5C131.218 35 140.218 21.05 154.018 21.05C167.818 21.05 177.118 35.45 177.118 54.5C177.118 73.85 168.268 87.95 154.318 87.95ZM268.688 107H290.738V84.35H304.838V65.6H290.738V1.24999H271.238L213.638 68L217.388 84.35H268.688V107ZM240.788 65.6L268.688 32.9V65.6H240.788Z" fill="url(#paint0_linear)"/>
<defs>
<linearGradient id="paint0_linear" x1="154.5" y1="-8" x2="154.5" y2="136" gradientUnits="userSpaceOnUse">
<stop stop-color="#59B4F4"/>
<stop offset="1" stop-color="#184AAF"/>
</linearGradient>
</defs>
</svg>
