<svg xmlns="http://www.w3.org/2000/svg" xmlns:xlink="http://www.w3.org/1999/xlink" xmlns:bx="https://boxy-svg.com">
    <symbol id="icon-basket" viewBox="0 0 22 22">
        <path d="M7.08816 14.2228H7.08917C7.09001 14.2228 7.09085 14.2227 7.09169 14.2227H18.7773C19.065 14.2227 19.318 14.0318 19.397 13.7552L21.9752 4.73177C22.0307 4.53723 21.9918 4.32809 21.8701 4.16663C21.7482 4.00516 21.5577 3.91016 21.3555 3.91016H5.60171L5.14097 1.83675C5.07535 1.54184 4.81384 1.33203 4.51172 1.33203H0.644531C0.288528 1.33203 0 1.62056 0 1.97656C0 2.33257 0.288528 2.62109 0.644531 2.62109H3.99475C4.07632 2.98851 6.19958 12.5434 6.32178 13.093C5.63679 13.3908 5.15625 14.0738 5.15625 14.8672C5.15625 15.9334 6.02368 16.8008 7.08984 16.8008H18.7773C19.1333 16.8008 19.4219 16.5123 19.4219 16.1563C19.4219 15.8002 19.1333 15.5117 18.7773 15.5117H7.08984C6.73451 15.5117 6.44531 15.2225 6.44531 14.8672C6.44531 14.5124 6.7335 14.2237 7.08816 14.2228ZM20.501 5.19922L18.2911 12.9336H7.60681L5.88806 5.19922H20.501Z"/>
        <path d="M6.44531 18.7344C6.44531 19.8005 7.31274 20.668 8.37891 20.668C9.44507 20.668 10.3125 19.8005 10.3125 18.7344C10.3125 17.6682 9.44507 16.8008 8.37891 16.8008C7.31274 16.8008 6.44531 17.6682 6.44531 18.7344ZM8.37891 18.0898C8.73424 18.0898 9.02344 18.379 9.02344 18.7344C9.02344 19.0897 8.73424 19.3789 8.37891 19.3789C8.02357 19.3789 7.73438 19.0897 7.73438 18.7344C7.73438 18.379 8.02357 18.0898 8.37891 18.0898Z"/>
        <path d="M15.5547 18.7344C15.5547 19.8005 16.4221 20.668 17.4883 20.668C18.5544 20.668 19.4219 19.8005 19.4219 18.7344C19.4219 17.6682 18.5544 16.8008 17.4883 16.8008C16.4221 16.8008 15.5547 17.6682 15.5547 18.7344ZM17.4883 18.0898C17.8436 18.0898 18.1328 18.379 18.1328 18.7344C18.1328 19.0897 17.8436 19.3789 17.4883 19.3789C17.1329 19.3789 16.8438 19.0897 16.8438 18.7344C16.8438 18.379 17.1329 18.0898 17.4883 18.0898Z"/>
    </symbol>
    <symbol id="icon-basket-add" viewBox="0 0 20 20">
        <path d="M6.44379 12.9298H6.4447C6.44546 12.9298 6.44623 12.9297 6.44699 12.9297H17.0703C17.3318 12.9297 17.5618 12.7562 17.6337 12.5047L19.9774 4.30161C20.0279 4.12476 19.9925 3.93463 19.8819 3.78784C19.7711 3.64105 19.5979 3.55469 19.4141 3.55469H5.09247L4.67361 1.66977C4.61395 1.40167 4.37622 1.21094 4.10156 1.21094H0.585937C0.262299 1.21094 0 1.47324 0 1.79688C0 2.12051 0.262299 2.38281 0.585937 2.38281H3.63159C3.70575 2.71683 5.63599 11.403 5.74707 11.9028C5.12436 12.1735 4.6875 12.7943 4.6875 13.5156C4.6875 14.4849 5.47607 15.2734 6.44531 15.2734H17.0703C17.3939 15.2734 17.6562 15.0111 17.6562 14.6875C17.6562 14.3639 17.3939 14.1016 17.0703 14.1016H6.44531C6.12228 14.1016 5.85937 13.8387 5.85937 13.5156C5.85937 13.1931 6.12137 12.9306 6.44379 12.9298ZM18.6372 4.72656L16.6283 11.7578H6.91528L5.35278 4.72656H18.6372Z" fill="white"/>
        <path d="M5.85938 17.0312C5.85938 18.0005 6.64795 18.7891 7.61719 18.7891C8.58643 18.7891 9.375 18.0005 9.375 17.0312C9.375 16.062 8.58643 15.2734 7.61719 15.2734C6.64795 15.2734 5.85938 16.062 5.85938 17.0312ZM7.61719 16.4453C7.94022 16.4453 8.20312 16.7082 8.20312 17.0312C8.20312 17.3543 7.94022 17.6172 7.61719 17.6172C7.29416 17.6172 7.03125 17.3543 7.03125 17.0312C7.03125 16.7082 7.29416 16.4453 7.61719 16.4453Z" fill="white"/>
        <path d="M14.1406 17.0312C14.1406 18.0005 14.9292 18.7891 15.8984 18.7891C16.8677 18.7891 17.6562 18.0005 17.6562 17.0312C17.6562 16.062 16.8677 15.2734 15.8984 15.2734C14.9292 15.2734 14.1406 16.062 14.1406 17.0312ZM15.8984 16.4453C16.2215 16.4453 16.4844 16.7082 16.4844 17.0312C16.4844 17.3543 16.2215 17.6172 15.8984 17.6172C15.5754 17.6172 15.3125 17.3543 15.3125 17.0312C15.3125 16.7082 15.5754 16.4453 15.8984 16.4453Z" fill="white"/>
    </symbol>
    <symbol id="icon-brands-next" viewBox="0 0 26 26">
        <path d="M19.7102 12.2866L7.70444 0.280834C7.30698 -0.103022 6.67363 -0.0920012 6.28977 0.305455C5.9153 0.69318 5.9153 1.30783 6.28977 1.6955L17.5882 12.9939L6.28977 24.2924C5.89918 24.683 5.89918 25.3164 6.28977 25.707C6.68049 26.0976 7.31378 26.0976 7.70444 25.707L19.7102 13.7013C20.1008 13.3105 20.1008 12.6773 19.7102 12.2866Z"/>
    </symbol>
    <symbol id="icon-brands-prev" viewBox="0 0 26 26">
        <path d="M6.28979 12.2866L18.2956 0.280834C18.693 -0.103022 19.3264 -0.0920012 19.7102 0.305455C20.0847 0.69318 20.0847 1.30783 19.7102 1.6955L8.41179 12.9939L19.7102 24.2924C20.1008 24.683 20.1008 25.3164 19.7102 25.707C19.3195 26.0976 18.6862 26.0976 18.2956 25.707L6.28979 13.7013C5.89919 13.3105 5.89919 12.6773 6.28979 12.2866Z"/>
    </symbol>
    <symbol id="icon-check" viewBox="0 0 14 14">
        <path d="M0 7.44669L4.79421 12.2501L14 3.05337L12.6784 1.75L4.79421 9.62499L1.30334 6.13414L0 7.44669Z" fill="#F2C94C"/>
    </symbol>
    <symbol id="icon-close" viewBox="0 0 17 17">
        <path d="M10.0575 8.51314L16.6769 1.89347C17.1077 1.46289 17.1077 0.766702 16.6769 0.33612C16.2464 -0.0944618 15.5502 -0.0944618 15.1196 0.33612L8.49992 6.95578L1.88044 0.33612C1.44966 -0.0944618 0.75367 -0.0944618 0.323088 0.33612C-0.107696 0.766702 -0.107696 1.46289 0.323088 1.89347L6.94256 8.51314L0.323088 15.1328C-0.107696 15.5634 -0.107696 16.2596 0.323088 16.6902C0.537673 16.9049 0.81982 17.0128 1.10177 17.0128C1.38371 17.0128 1.66566 16.9049 1.88044 16.6902L8.49992 10.0705L15.1196 16.6902C15.3344 16.9049 15.6163 17.0128 15.8983 17.0128C16.1802 17.0128 16.4622 16.9049 16.6769 16.6902C17.1077 16.2596 17.1077 15.5634 16.6769 15.1328L10.0575 8.51314Z"/>
    </symbol>
    <symbol id="icon-copyright" viewBox="0 0 18 18">
        <path d="M9 18C4.03749 18 0 13.9625 0 9C0 4.03749 4.03749 0 9 0C13.9625 0 18 4.03749 18 9C18 13.9625 13.9625 18 9 18ZM9 1.12501C4.65765 1.12501 1.12501 4.65765 1.12501 9C1.12501 13.3424 4.65765 16.875 9 16.875C13.3424 16.875 16.875 13.3424 16.875 9C16.875 4.65765 13.3424 1.12501 9 1.12501Z" fill="white"/>
        <path d="M9.00002 13.5C6.51876 13.5 4.5 11.4813 4.5 9.00002C4.5 6.51872 6.51872 4.5 9.00002 4.5C10.22 4.5 11.3615 4.98011 12.2152 5.85187L11.411 6.63847C10.7711 5.98477 9.91522 5.62496 9.00002 5.62496C7.13893 5.62496 5.62501 7.13889 5.62501 8.99998C5.62501 10.8611 7.13893 12.375 9.00002 12.375C9.91465 12.375 10.7705 12.0152 11.411 11.3615L12.2141 12.1492C11.361 13.0205 10.2195 13.5 9.00002 13.5Z" fill="white"/>
    </symbol>
    <symbol id="icon-delete" viewBox="0 0 16 16">
        <path d="M9.46586 8.01314L15.6959 1.78287C16.1014 1.37762 16.1014 0.722377 15.6959 0.317124C15.2907 -0.0881298 14.6355 -0.0881298 14.2302 0.317124L7.99992 6.5474L1.76983 0.317124C1.36439 -0.0881298 0.709337 -0.0881298 0.304083 0.317124C-0.101361 0.722377 -0.101361 1.37762 0.304083 1.78287L6.53417 8.01314L0.304083 14.2434C-0.101361 14.6487 -0.101361 15.3039 0.304083 15.7092C0.506045 15.9113 0.771596 16.0129 1.03696 16.0129C1.30232 16.0129 1.56768 15.9113 1.76983 15.7092L7.99992 9.47889L14.2302 15.7092C14.4324 15.9113 14.6977 16.0129 14.9631 16.0129C15.2284 16.0129 15.4938 15.9113 15.6959 15.7092C16.1014 15.3039 16.1014 14.6487 15.6959 14.2434L9.46586 8.01314Z"/>
    </symbol>
    <symbol id="icon-diff" viewBox="0 0 20 20">
        <path d="M19.1129 11.5122L17.6768 10.5891L10.8815 14.9577C10.6151 15.1289 10.307 15.2193 9.99023 15.2193C9.67346 15.2193 9.36539 15.1289 9.09897 14.9577L2.3037 10.5891L0.867577 11.5122C0.71022 11.6134 0.615234 11.7874 0.615234 11.9743C0.615234 12.1613 0.71022 12.3354 0.867577 12.4363L9.69326 18.11C9.78367 18.1683 9.88701 18.1973 9.99023 18.1973C10.0935 18.1973 10.1968 18.1683 10.2872 18.11L19.1129 12.4363C19.2701 12.3354 19.3652 12.1613 19.3652 11.9743C19.3652 11.7874 19.2702 11.6134 19.1129 11.5122Z"/>
        <path d="M0.867577 8.35984L9.69326 14.0336C9.78367 14.0916 9.88701 14.1207 9.99023 14.1207C10.0935 14.1207 10.1968 14.0916 10.2872 14.0336L19.1129 8.35984C19.2701 8.25868 19.3652 8.08461 19.3652 7.89784C19.3652 7.71085 19.2702 7.53678 19.1129 7.43562L10.2872 1.76209C10.1064 1.64571 9.87408 1.64571 9.69315 1.76209L0.867462 7.43562C0.71022 7.53678 0.615234 7.71085 0.615234 7.89784C0.615234 8.08461 0.71022 8.25868 0.867577 8.35984Z"/>
    </symbol>
    <symbol id="icon-favorite" viewBox="0 0 20 17">
        <path d="M20 5.29959C20 2.37266 17.5819 0 14.599 0C12.6512 0 10.9502 1.01502 9.99994 2.53194C9.04978 1.01502 7.34804 0 5.40032 0C2.41744 0 0 2.37266 0 5.29959C0 6.89315 0.719639 8.31881 1.85384 9.28967L9.50708 16.7997C9.63779 16.9279 9.81505 17 9.99994 17C10.1848 17 10.3621 16.9279 10.4928 16.7997L18.146 9.28967C19.2803 8.31881 20 6.89315 20 5.29959Z"/>
    </symbol>
    <symbol id="icon-field-email" viewBox="0 0 18 18">
        <path d="M16.418 2.14453H1.58203C0.710789 2.14453 0 2.85455 0 3.72656V14.2734C0 15.1425 0.707625 15.8555 1.58203 15.8555H16.418C17.287 15.8555 18 15.1478 18 14.2734V3.72656C18 2.8575 17.2924 2.14453 16.418 2.14453ZM16.1995 3.19922L9.03354 10.3652L1.80559 3.19922H16.1995ZM1.05469 14.055V3.93993L6.13403 8.97571L1.05469 14.055ZM1.80046 14.8008L6.883 9.71824L8.66391 11.4839C8.87006 11.6883 9.20275 11.6876 9.40806 11.4822L11.1445 9.74577L16.1995 14.8008H1.80046ZM16.9453 14.055L11.8903 9L16.9453 3.94495V14.055Z" fill="#B5B5BA"/>
    </symbol>
    <symbol id="icon-filter-arrow" viewBox="0 0 14 14">
        <path d="M7.54628 10.889L13.7763 4.65884C13.9206 4.51474 14 4.32238 14 4.11728C14 3.91217 13.9206 3.71982 13.7763 3.57572L13.3176 3.11691C13.0188 2.81836 12.533 2.81836 12.2345 3.11691L7.0029 8.34855L1.76547 3.11111C1.62126 2.96701 1.42901 2.88745 1.22402 2.88745C1.0188 2.88745 0.826562 2.96701 0.682239 3.11111L0.223657 3.56992C0.0794468 3.71413 0 3.90637 0 4.11147C0 4.31658 0.0794468 4.50893 0.223657 4.65303L6.45941 10.889C6.60408 11.0335 6.79723 11.1128 7.00256 11.1123C7.20869 11.1128 7.40173 11.0335 7.54628 10.889Z" fill="#B5B5BA"/>
    </symbol>
    <symbol id="icon-mark" viewBox="0 0 17 17">
        <path d="M8.49994 0C4.88711 0 1.94797 2.93914 1.94797 6.55197C1.94797 8.584 2.99918 10.9441 5.07271 13.5665C6.5901 15.4853 8.08557 16.8117 8.14832 16.8672C8.3479 17.0431 8.64922 17.0455 8.85156 16.8672C8.91432 16.8117 10.4098 15.4853 11.9272 13.5665C14.0007 10.9441 15.0519 8.584 15.0519 6.55197C15.0519 2.93914 12.1128 0 8.49994 0V0ZM5.57807 9.29688V7.01821C5.57807 6.87637 5.41168 6.79987 5.30401 6.89217L5.12683 7.04404C4.90404 7.23496 4.56869 7.20906 4.37777 6.98627C4.18685 6.76348 4.21275 6.42813 4.43555 6.23721L8.1543 3.04971C8.35318 2.87937 8.6467 2.87937 8.84558 3.04971L12.5643 6.23721C12.7871 6.42813 12.813 6.76348 12.6221 6.98627C12.43 7.20989 12.0949 7.2342 11.873 7.04404L11.6959 6.89217C11.5882 6.79987 11.4218 6.87637 11.4218 7.01821V9.29688C11.4218 9.59029 11.184 9.82812 10.8906 9.82812H6.10932C5.8159 9.82812 5.57807 9.59029 5.57807 9.29688Z" fill="white"/>
        <path d="M6.64062 5.82301V8.59979C6.64062 8.69147 6.71497 8.76581 6.80664 8.76581H10.1934C10.285 8.76581 10.3594 8.69147 10.3594 8.59979V5.82301C10.3594 5.77454 10.3382 5.72852 10.3014 5.69698L8.60804 4.24553C8.54589 4.19224 8.45415 4.19224 8.39196 4.24553L6.6986 5.69698C6.66181 5.72849 6.64062 5.77454 6.64062 5.82301Z" fill="white"/>
        <circle cx="8.5" cy="6.375" r="4.25" fill="#1E1E1E"/>
    </symbol>
    <symbol id="icon-page-next" viewBox="0 0 11 11">
        <path d="M8.5555 5.07078L3.66036 0.17573C3.54714 0.0624223 3.396 0 3.23485 0C3.07369 0 2.92256 0.0624223 2.80934 0.17573L2.44885 0.536134C2.21427 0.770977 2.21427 1.15267 2.44885 1.38715L6.55941 5.49772L2.44428 9.61285C2.33107 9.72616 2.26855 9.8772 2.26855 10.0383C2.26855 10.1995 2.33107 10.3506 2.44428 10.464L2.80478 10.8243C2.91809 10.9376 3.06913 11 3.23029 11C3.39144 11 3.54258 10.9376 3.6558 10.8243L8.5555 5.92475C8.66898 5.81108 8.73132 5.65932 8.73096 5.49799C8.73132 5.33603 8.66898 5.18436 8.5555 5.07078Z"/>
    </symbol>
    <symbol id="icon-personal" viewBox="0 0 13 17">
        <path d="M6.49996 8.31412C8.40028 8.31412 9.94093 6.45296 9.94093 4.15708C9.94093 1.86116 9.43511 0 6.49996 0C3.56482 0 3.0589 1.86116 3.0589 4.15708C3.0589 6.45296 4.59955 8.31412 6.49996 8.31412Z"/>
        <path d="M0.000673026 14.6614C9.01683e-05 14.5214 -0.000492689 14.622 0.000673026 14.6614V14.6614Z"/>
        <path d="M12.999 14.7708C13.0009 14.7325 12.9997 14.505 12.999 14.7708V14.7708Z"/>
        <path d="M12.9917 14.4935C12.928 10.4941 12.4028 9.35444 8.38413 8.63306C8.38413 8.63306 7.81844 9.35002 6.49993 9.35002C5.18142 9.35002 4.61563 8.63306 4.61563 8.63306C0.640819 9.34657 0.0837252 10.4693 0.0104747 14.3636C0.00446819 14.6816 0.00168469 14.6983 0.000610352 14.6614C0.00085452 14.7306 0.00114741 14.8585 0.00114741 15.0816C0.00114741 15.0816 0.957896 17 6.49993 17C12.0419 17 12.9987 15.0816 12.9987 15.0816C12.9987 14.9383 12.9988 14.8386 12.999 14.7708C12.9979 14.7936 12.9957 14.7494 12.9917 14.4935Z"/>
    </symbol>
    <symbol id="icon-personal-link-1" viewBox="0 0 20 20">
        <path d="M9.92587 10.7766C9.94658 10.7766 9.96729 10.7766 9.99214 10.7766C10.0004 10.7766 10.0087 10.7766 10.017 10.7766C10.0294 10.7766 10.046 10.7766 10.0584 10.7766C11.2719 10.7559 12.2535 10.3293 12.9783 9.51336C14.5728 7.71588 14.3077 4.6345 14.2787 4.34044C14.1752 2.13295 13.1315 1.07683 12.27 0.583972C11.6281 0.215366 10.8784 0.0165666 10.0418 0H10.0128C10.0087 0 10.0004 0 9.99628 0H9.97143C9.51171 0 8.60883 0.0745496 7.74322 0.567405C6.87348 1.06026 5.81322 2.11638 5.70968 4.34044C5.68068 4.6345 5.41562 7.71588 7.01015 9.51336C7.7308 10.3293 8.71237 10.7559 9.92587 10.7766ZM6.8155 4.44398C6.8155 4.43156 6.81964 4.41913 6.81964 4.41085C6.95631 1.44129 9.06441 1.12239 9.96729 1.12239H9.98385C9.99214 1.12239 10.0046 1.12239 10.017 1.12239C11.1352 1.14724 13.0362 1.60282 13.1646 4.41085C13.1646 4.42328 13.1646 4.4357 13.1688 4.44398C13.1729 4.47298 13.4628 7.28929 12.1458 8.772C11.6239 9.36012 10.9281 9.65003 10.0128 9.65831C10.0046 9.65831 10.0004 9.65831 9.99214 9.65831C9.98385 9.65831 9.97971 9.65831 9.97143 9.65831C9.06027 9.65003 8.36033 9.36012 7.84262 8.772C6.52972 7.29758 6.81135 4.46883 6.8155 4.44398Z"/>
        <path d="M18.503 15.8872C18.503 15.8831 18.503 15.8789 18.503 15.8748C18.503 15.8416 18.4989 15.8085 18.4989 15.7712C18.4741 14.9512 18.4202 13.0336 16.6227 12.4206C16.6103 12.4165 16.5937 12.4124 16.5813 12.4082C14.7134 11.9319 13.1603 10.8551 13.1438 10.8427C12.8911 10.6646 12.5432 10.7267 12.3651 10.9793C12.187 11.232 12.2492 11.5799 12.5018 11.758C12.5722 11.8077 14.2206 12.9549 16.2831 13.485C17.2481 13.8288 17.3558 14.8601 17.3848 15.8044C17.3848 15.8416 17.3848 15.8748 17.3889 15.9079C17.3931 16.2807 17.3682 16.8563 17.302 17.1877C16.631 17.5687 14.0011 18.8857 10.0003 18.8857C6.01599 18.8857 3.36948 17.5646 2.69439 17.1835C2.62813 16.8522 2.59913 16.2765 2.60742 15.9038C2.60742 15.8706 2.61156 15.8375 2.61156 15.8002C2.64055 14.8559 2.74823 13.8247 3.71324 13.4809C5.77577 12.9508 7.42415 11.7994 7.49456 11.7538C7.7472 11.5757 7.80932 11.2278 7.63123 10.9752C7.45314 10.7226 7.10524 10.6604 6.8526 10.8385C6.83604 10.851 5.2912 11.9278 3.41504 12.4041C3.39847 12.4082 3.38605 12.4124 3.37362 12.4165C1.57615 13.0336 1.52231 14.9512 1.49746 15.7671C1.49746 15.8044 1.49746 15.8375 1.49331 15.8706C1.49331 15.8748 1.49331 15.8789 1.49331 15.8831C1.48917 16.0984 1.48503 17.2042 1.70454 17.7592C1.74596 17.8669 1.8205 17.958 1.9199 18.0201C2.04415 18.103 5.022 19.9999 10.0044 19.9999C14.9868 19.9999 17.9646 18.0988 18.0889 18.0201C18.1841 17.958 18.2628 17.8669 18.3042 17.7592C18.5113 17.2084 18.5072 16.1026 18.503 15.8872Z"/>
    </symbol>
    <symbol id="icon-personal-link-2" viewBox="0 0 20 20">
        <path d="M9.99791 6.25L9.99609 10.6226C9.99609 10.7886 10.062 10.9473 10.1792 11.0645L13.3073 14.1919L14.191 13.3081L11.2461 10.3638L11.2479 6.25H9.99791Z"/>
        <path d="M11.25 1.25C6.85069 1.25 3.2097 4.51722 2.59989 8.75001H0L3.125 11.875L6.25 8.75001H3.8629C4.46083 5.20859 7.54098 2.50001 11.25 2.50001C15.3857 2.50001 18.75 5.86426 18.75 10C18.75 14.1358 15.3858 17.5 11.25 17.5C8.92519 17.5 6.76944 16.4478 5.33569 14.6131L4.35059 15.3821C6.02293 17.522 8.53759 18.75 11.25 18.75C16.0748 18.75 20 14.8242 20 10C20 5.17582 16.0748 1.25004 11.25 1.25Z"/>
    </symbol>
    <symbol id="icon-personal-link-3" viewBox="0 0 20 20">
        <path d="M15.625 20H4.375C3.34167 20 2.5 19.1592 2.5 18.125V9.375C2.5 8.34083 3.34167 7.5 4.375 7.5H15.625C16.6583 7.5 17.5 8.34083 17.5 9.375V18.125C17.5 19.1592 16.6583 20 15.625 20ZM4.375 8.75C4.03083 8.75 3.75 9.03 3.75 9.375V18.125C3.75 18.47 4.03083 18.75 4.375 18.75H15.625C15.9692 18.75 16.25 18.47 16.25 18.125V9.375C16.25 9.03 15.9692 8.75 15.625 8.75H4.375Z"/>
        <path d="M14.375 8.75C14.03 8.75 13.75 8.47 13.75 8.125V5C13.75 2.9325 12.0675 1.25 10 1.25C7.9325 1.25 6.25 2.9325 6.25 5V8.125C6.25 8.47 5.97 8.75 5.625 8.75C5.28 8.75 5 8.47 5 8.125V5C5 2.2425 7.2425 0 10 0C12.7575 0 15 2.2425 15 5V8.125C15 8.47 14.72 8.75 14.375 8.75Z"/>
        <path d="M9.99869 14.1668C9.07953 14.1668 8.33203 13.4193 8.33203 12.5002C8.33203 11.581 9.07953 10.8335 9.99869 10.8335C10.9179 10.8335 11.6654 11.581 11.6654 12.5002C11.6654 13.4193 10.9179 14.1668 9.99869 14.1668ZM9.99869 12.0835C9.76953 12.0835 9.58203 12.2702 9.58203 12.5002C9.58203 12.7302 9.76953 12.9168 9.99869 12.9168C10.2279 12.9168 10.4154 12.7302 10.4154 12.5002C10.4154 12.2702 10.2279 12.0835 9.99869 12.0835Z"/>
        <path d="M10 16.6667C9.655 16.6667 9.375 16.3867 9.375 16.0417V13.75C9.375 13.405 9.655 13.125 10 13.125C10.345 13.125 10.625 13.405 10.625 13.75V16.0417C10.625 16.3867 10.345 16.6667 10 16.6667Z"/>
    </symbol>
    <symbol id="icon-phone" viewBox="0 0 16 16">
        <path d="M14.7368 10.5347C13.762 10.5366 12.7931 10.3825 11.8669 10.0783C11.4339 9.92709 10.9527 10.029 10.6181 10.3427L8.80086 11.7137C6.84924 10.7339 5.26572 9.15064 4.2855 7.19918L5.62023 5.4257C5.95722 5.08848 6.07773 4.59139 5.93266 4.13728C5.62729 3.20984 5.47236 2.23954 5.4737 1.26316C5.4737 0.56554 4.90816 0 4.21054 0H1.26316C0.56554 0 0 0.56554 0 1.26316C0.00927632 9.39826 6.60174 15.9907 14.7368 16C15.4345 16 16 15.4345 16 14.7368V11.7979C16 11.1003 15.4345 10.5347 14.7368 10.5347Z" fill="white"/>
    </symbol>
    <symbol id="icon-product-diff" viewBox="0 0 20 20">
        <path d="M19.7308 11.6652L17.1155 9.98394L19.7308 8.30257C19.8985 8.19469 20 8.009 20 7.80972C20 7.61028 19.8987 7.42458 19.7308 7.3167L10.3168 1.26492C10.1239 1.14086 9.8761 1.14086 9.68307 1.26492L0.269012 7.3167C0.101318 7.42458 0 7.61028 0 7.80972C0 8.009 0.101318 8.19469 0.269165 8.30257L2.88452 9.98394L0.269165 11.6652C0.101318 11.773 0 11.9587 0 12.158C0 12.3574 0.101318 12.5431 0.269165 12.6509L9.68323 18.7028C9.77966 18.7649 9.88983 18.7959 10 18.7959C10.1102 18.7959 10.2203 18.7649 10.3168 18.7028L19.7308 12.6509C19.8985 12.5431 20 12.3574 20 12.158C20 11.9587 19.8987 11.773 19.7308 11.6652ZM10 2.45434L18.3305 7.80972L10 13.1649L1.66946 7.80972L10 2.45434ZM10 17.5134L1.66946 12.158L3.96805 10.6804L9.68323 14.3544C9.77966 14.4165 9.88983 14.4474 10 14.4474C10.1102 14.4474 10.2203 14.4165 10.3168 14.3544L16.032 10.6804L18.3305 12.158L10 17.5134Z"/>
    </symbol>
    <symbol id="icon-product-favorite" viewBox="0 0 20 20">
        <path d="M18.3644 2.45457C17.33 1.34265 15.8804 0.709981 14.3617 0.707636C12.8417 0.709395 11.3906 1.34173 10.3546 2.45386L10.0015 2.82698L9.64836 2.45386C7.59251 0.241198 4.13215 0.114128 1.91953 2.16998C1.82148 2.26112 1.72679 2.35577 1.63565 2.45386C-0.545218 4.80619 -0.545218 8.44162 1.63565 10.794L9.48255 19.069C9.75403 19.3556 10.2064 19.3679 10.493 19.0964C10.5024 19.0875 10.5115 19.0784 10.5204 19.069L18.3645 10.794C20.5452 8.44187 20.5452 4.80665 18.3644 2.45457ZM17.3302 9.80969H17.3294L10.0015 17.5386L2.67282 9.80969C1.00676 8.01229 1.00676 5.23481 2.67282 3.43741C4.1858 1.79757 6.74172 1.69475 8.38156 3.20773C8.46118 3.28119 8.53778 3.35779 8.61124 3.43741L9.48255 4.35663C9.76969 4.64193 10.2333 4.64193 10.5204 4.35663L11.3917 3.43812C12.9047 1.79828 15.4606 1.69546 17.1005 3.20844C17.1801 3.2819 17.2567 3.35851 17.3302 3.43812C19.0107 5.23837 19.023 8.02092 17.3302 9.80969Z"/>
    </symbol>
    <symbol id="icon-product-view" viewBox="0 0 20 20">
        <path d="M19.8729 9.61109C19.6942 9.36667 15.4371 3.62646 9.9999 3.62646C4.56274 3.62646 0.305391 9.36667 0.126914 9.61085C-0.0423048 9.84273 -0.0423048 10.1572 0.126914 10.3891C0.305391 10.6335 4.56274 16.3737 9.9999 16.3737C15.4371 16.3737 19.6942 10.6335 19.8729 10.3893C20.0423 10.1575 20.0423 9.84273 19.8729 9.61109ZM9.9999 15.055C5.99486 15.055 2.52606 11.2452 1.49922 9.99964C2.52473 8.75304 5.98626 4.94514 9.9999 4.94514C14.0048 4.94514 17.4733 8.75437 18.5006 10.0005C17.4751 11.2471 14.0135 15.055 9.9999 15.055Z"/>
        <path d="M9.99982 6.04395C7.81849 6.04395 6.04376 7.81868 6.04376 10C6.04376 12.1813 7.81849 13.9561 9.99982 13.9561C12.1812 13.9561 13.9559 12.1813 13.9559 10C13.9559 7.81868 12.1812 6.04395 9.99982 6.04395ZM9.99982 12.6374C8.54552 12.6374 7.36248 11.4543 7.36248 10C7.36248 8.54575 8.54556 7.36266 9.99982 7.36266C11.4541 7.36266 12.6372 8.54575 12.6372 10C12.6372 11.4543 11.4541 12.6374 9.99982 12.6374Z"/>
    </symbol>
    <symbol id="icon-search" viewBox="0 0 21 21">
        <path d="M9.24796 0C4.14877 0 0 4.14877 0 9.24796C0 14.3474 4.14877 18.4959 9.24796 18.4959C14.3474 18.4959 18.4959 14.3474 18.4959 9.24796C18.4959 4.14877 14.3474 0 9.24796 0ZM9.24796 16.7886C5.09008 16.7886 1.70732 13.4059 1.70732 9.248C1.70732 5.09012 5.09008 1.70732 9.24796 1.70732C13.4058 1.70732 16.7886 5.09008 16.7886 9.24796C16.7886 13.4058 13.4058 16.7886 9.24796 16.7886Z"/>
        <path d="M20.7499 19.5428L15.8556 14.6484C15.5221 14.3149 14.982 14.3149 14.6485 14.6484C14.315 14.9817 14.315 15.5223 14.6485 15.8555L19.5428 20.7498C19.7095 20.9166 19.9278 21 20.1464 21C20.3646 21 20.5831 20.9166 20.7499 20.7498C21.0834 20.4166 21.0834 19.876 20.7499 19.5428Z"/>
    </symbol>
    <symbol id="icon-select-arrow" viewBox="0 0 11 11">
        <path d="M5.92922 8.55574L10.8243 3.6606C10.9376 3.54738 11 3.39625 11 3.23509C11 3.07394 10.9376 2.9228 10.8243 2.80958L10.4639 2.44909C10.229 2.21451 9.84733 2.21451 9.61285 2.44909L5.50228 6.55966L1.38715 2.44453C1.27384 2.33131 1.1228 2.2688 0.961732 2.2688C0.800489 2.2688 0.649442 2.33131 0.536044 2.44453L0.17573 2.80502C0.0624218 2.91833 0 3.06938 0 3.23053C0 3.39168 0.0624218 3.54282 0.17573 3.65604L5.07525 8.55574C5.18892 8.66923 5.34068 8.73156 5.50201 8.7312C5.66397 8.73156 5.81564 8.66923 5.92922 8.55574Z" fill="#B5B5BA"/>
    </symbol>
    <symbol id="icon-shipping-1" viewBox="0 0 20 20">
        <path d="M10 0C5.8 0 2.38281 3.41719 2.38281 7.61719C2.38281 9.2793 2.90781 10.8586 3.90234 12.1836L9.53047 19.7637C9.54453 19.7821 9.56602 19.7891 9.58164 19.8055C9.86289 20.1067 10.2688 20.0309 10.4691 19.7637C12.0898 17.6012 15.0605 13.5625 16.2027 12.0391C16.2027 12.0391 16.2031 12.0379 16.2035 12.0371L16.2105 12.0277C17.1309 10.7348 17.6172 9.20977 17.6172 7.61719C17.6172 3.41719 14.2 0 10 0ZM10 11.7266C7.73867 11.7266 5.89062 9.87852 5.89062 7.61719C5.89062 5.35586 7.73867 3.50781 10 3.50781C12.2613 3.50781 14.1094 5.35586 14.1094 7.61719C14.1094 9.87852 12.2613 11.7266 10 11.7266Z" fill="#407FEE"/>
    </symbol>
    <symbol id="icon-shipping-2" viewBox="0 0 20 20">
        <path d="M0 13.7634C0 13.9684 0.143688 14.1293 0.348734 14.1293H0.905523C1.27964 13.3041 2.13143 12.6796 3.12045 12.6796C4.10951 12.6796 4.96111 13.3041 5.33542 14.1293H12.5727V11.1682H0V13.7634Z" fill="#407FEE"/>
        <path d="M3.12073 13.4619C2.21429 13.4619 1.47949 14.1967 1.47949 15.1032C1.47949 16.0096 2.21429 16.7444 3.12073 16.7444C4.02674 16.7434 4.76096 16.0092 4.76198 15.1032C4.76198 14.1968 4.02718 13.4619 3.12073 13.4619Z" fill="#407FEE"/>
        <path d="M19.7864 9.96193L18.2233 9.2749H13.3496V14.1292H14.2956C14.67 13.304 15.5215 12.6795 16.5105 12.6795C17.4996 12.6795 18.3514 13.304 18.7255 14.1292H19.6513C19.8563 14.1292 20 13.9683 20 13.7632V10.315C20.0052 10.1654 19.9214 10.0268 19.7864 9.96193Z" fill="#407FEE"/>
        <path d="M16.6163 6.47631C16.4213 6.10229 16.0318 5.8704 15.61 5.87709H13.3496V8.49842H17.6658L16.6163 6.47631Z" fill="#407FEE"/>
        <path d="M11.4579 3.25562H1.10892C0.484703 3.25562 0 3.76949 0 4.39371V10.3914H12.5727V4.39371C12.5727 4.39196 12.5727 4.39021 12.5727 4.38847C12.5777 3.76784 12.0786 3.26062 11.4579 3.25562Z" fill="#407FEE"/>
        <path d="M16.5103 13.4619C15.6039 13.462 14.8691 14.1968 14.8691 15.1032C14.8692 16.0097 15.604 16.7444 16.5104 16.7444C17.4164 16.7434 18.1506 16.0092 18.1516 15.1032V15.1031C18.1516 14.1967 17.4168 13.4619 16.5103 13.4619Z" fill="#407FEE"/>
    </symbol>
    <symbol id="icon-shipping-3" viewBox="0 0 20 20">
        <path d="M19.5294 7.72278L17.9922 7.38861C17.8586 6.97937 17.693 6.5802 17.4976 6.19568L18.3485 4.87198C18.5005 4.63547 18.4671 4.32495 18.2684 4.12628L15.8737 1.73157C15.675 1.5329 15.3645 1.49948 15.128 1.65146L13.8043 2.50244C13.4198 2.30698 13.0206 2.14142 12.6114 2.00775L12.2772 0.470581C12.2176 0.195923 11.9743 0 11.6933 0H8.30673C8.02567 0 7.78244 0.195923 7.72278 0.470581L7.38861 2.00775C6.97937 2.14142 6.5802 2.30698 6.19568 2.50244L4.87198 1.65146C4.63547 1.49948 4.32495 1.5329 4.12628 1.73157L1.73157 4.12628C1.5329 4.32495 1.49948 4.63547 1.65146 4.87198L2.50244 6.19568C2.30698 6.5802 2.14142 6.97937 2.00775 7.38861L0.470581 7.72278C0.195923 7.78259 0 8.02567 0 8.30673V11.6933C0 11.9743 0.195923 12.2174 0.470581 12.2772L2.00775 12.6114C2.14142 13.0206 2.30698 13.4198 2.50244 13.8043L1.65146 15.128C1.49948 15.3645 1.5329 15.675 1.73157 15.8737L4.12628 18.2684C4.32495 18.4671 4.63547 18.5005 4.87198 18.3485L6.19568 17.4976C6.5802 17.693 6.97937 17.8586 7.38861 17.9922L7.72278 19.5294C7.78244 19.8041 8.02567 20 8.30673 20H11.6933C11.9743 20 12.2176 19.8041 12.2772 19.5294L12.6114 17.9922C13.0206 17.8586 13.4198 17.693 13.8043 17.4976L15.128 18.3485C15.3645 18.5005 15.675 18.4673 15.8737 18.2684L18.2684 15.8737C18.4671 15.675 18.5005 15.3645 18.3485 15.128L17.4976 13.8043C17.693 13.4198 17.8586 13.0206 17.9922 12.6114L19.5294 12.2772C19.8041 12.2174 20 11.9743 20 11.6933V8.30673C20 8.02567 19.8041 7.78259 19.5294 7.72278ZM13.5857 10C13.5857 11.9771 11.9771 13.5857 10 13.5857C8.02292 13.5857 6.41434 11.9771 6.41434 10C6.41434 8.02292 8.02292 6.41434 10 6.41434C11.9771 6.41434 13.5857 8.02292 13.5857 10Z" fill="#407FEE"/>
    </symbol>
    <symbol id="icon-slider-next" viewBox="0 0 45 45">
        <path d="M31.308 22.5012L10.9853 42.8239C10.4855 43.3237 10.4855 44.1253 10.9853 44.6251C11.4851 45.125 12.2867 45.125 12.7865 44.6251L34.0146 23.3971C34.5144 22.8973 34.5144 22.0957 34.0146 21.5958L12.7865 0.37722C12.5413 0.13203 12.2113 0 11.8906 0C11.57 0 11.2399 0.122597 10.9947 0.37722C10.4949 0.877037 10.4949 1.67863 10.9947 2.17844L31.308 22.5012Z"/>
    </symbol>
    <symbol id="icon-slider-prev" viewBox="0 0 45 45">
        <path d="M13.692 22.4988L34.0147 2.17609C34.5145 1.67627 34.5145 0.874679 34.0147 0.374862C33.5149 -0.124954 32.7133 -0.124954 32.2135 0.374862L10.9854 21.6029C10.4856 22.1027 10.4856 22.9043 10.9854 23.4042L32.2135 44.6228C32.4587 44.868 32.7887 45 33.1094 45C33.43 45 33.7601 44.8774 34.0053 44.6228C34.5051 44.123 34.5051 43.3214 34.0053 42.8216L13.692 22.4988Z"/>
    </symbol>
    <symbol id="icon-social-inst" viewBox="0 0 24 28">
        <path d="M12.0053 7.71074C8.5982 7.71074 5.84999 10.5162 5.84999 13.9943C5.84999 17.4725 8.5982 20.2779 12.0053 20.2779C15.4125 20.2779 18.1607 17.4725 18.1607 13.9943C18.1607 10.5162 15.4125 7.71074 12.0053 7.71074ZM12.0053 18.0795C9.80355 18.0795 8.00356 16.2475 8.00356 13.9943C8.00356 11.7412 9.7982 9.90918 12.0053 9.90918C14.2125 9.90918 16.0071 11.7412 16.0071 13.9943C16.0071 16.2475 14.2071 18.0795 12.0053 18.0795ZM19.8482 7.45371C19.8482 8.26855 19.2053 8.91934 18.4125 8.91934C17.6143 8.91934 16.9768 8.26309 16.9768 7.45371C16.9768 6.64434 17.6196 5.98809 18.4125 5.98809C19.2053 5.98809 19.8482 6.64434 19.8482 7.45371ZM23.925 8.94121C23.8339 6.97793 23.3946 5.23887 21.9857 3.80605C20.5821 2.37324 18.8785 1.9248 16.9553 1.82637C14.9732 1.71152 9.03213 1.71152 7.04998 1.82637C5.13213 1.91934 3.42856 2.36777 2.01963 3.80059C0.610704 5.2334 0.176775 6.97246 0.0803466 8.93574C-0.0321533 10.9592 -0.0321533 17.024 0.0803466 19.0475C0.171418 21.0107 0.610704 22.7498 2.01963 24.1826C3.42856 25.6154 5.12677 26.0639 7.04998 26.1623C9.03213 26.2771 14.9732 26.2771 16.9553 26.1623C18.8785 26.0693 20.5821 25.6209 21.9857 24.1826C23.3893 22.7498 23.8285 21.0107 23.925 19.0475C24.0375 17.024 24.0375 10.9646 23.925 8.94121ZM21.3643 21.2186C20.9464 22.2904 20.1375 23.1162 19.0821 23.5482C17.5018 24.1881 13.7518 24.0404 12.0053 24.0404C10.2589 24.0404 6.50356 24.1826 4.92856 23.5482C3.87856 23.1217 3.06963 22.2959 2.64642 21.2186C2.01963 19.6053 2.16427 15.7771 2.16427 13.9943C2.16427 12.2115 2.02499 8.37793 2.64642 6.77012C3.06427 5.69824 3.8732 4.87246 4.92856 4.44043C6.50891 3.80059 10.2589 3.94824 12.0053 3.94824C13.7518 3.94824 17.5071 3.80605 19.0821 4.44043C20.1321 4.86699 20.941 5.69277 21.3643 6.77012C21.991 8.3834 21.8464 12.2115 21.8464 13.9943C21.8464 15.7771 21.991 19.6107 21.3643 21.2186Z"/>
    </symbol>
    <symbol id="icon-social-wapp" viewBox="0 0 26 26">
        <path fill-rule="evenodd" clip-rule="evenodd" d="M21.6222 4.34209C19.3418 2.05902 16.309 0.801144 13.0781 0.799805C6.42051 0.799805 1.00219 6.21798 0.999508 12.8774C0.998615 15.0062 1.55473 17.0842 2.61176 18.9159L0.898193 25.1748L7.30124 23.4952C9.06555 24.4576 11.0518 24.9647 13.0732 24.9653H13.0783C19.7351 24.9653 25.154 19.5467 25.1566 12.887C25.1579 9.65954 23.9027 6.62502 21.6222 4.34209ZM13.0781 22.9255H13.0739C11.2726 22.9248 9.50592 22.4406 7.96433 21.5261L7.5979 21.3085L3.79823 22.3053L4.81242 18.6007L4.57364 18.2208C3.56867 16.6224 3.038 14.775 3.03889 12.8781C3.04097 7.343 7.54464 2.83978 13.0821 2.83978C15.7636 2.84068 18.2843 3.88625 20.1797 5.78385C22.075 7.68146 23.1182 10.2038 23.1173 12.8863C23.1149 18.4218 18.6116 22.9255 13.0781 22.9255ZM18.5848 15.4067C18.2831 15.2555 16.7992 14.5256 16.5225 14.4248C16.2461 14.324 16.0446 14.2739 15.8437 14.5759C15.6424 14.8779 15.0641 15.5578 14.8879 15.7591C14.7118 15.9605 14.5359 15.9858 14.2341 15.8347C13.9322 15.6837 12.9598 15.3648 11.807 14.3367C10.9099 13.5364 10.3042 12.5481 10.1281 12.2461C9.95224 11.9438 10.1266 11.7962 10.2605 11.6302C10.5872 11.2245 10.9144 10.7991 11.0149 10.5979C11.1156 10.3964 11.0652 10.2201 10.9896 10.0691C10.9144 9.91811 10.3108 8.43261 10.0594 7.82815C9.81417 7.2399 9.56557 7.31934 9.3802 7.31012C9.20435 7.30134 9.00306 7.29956 8.80177 7.29956C8.60063 7.29956 8.27363 7.37498 7.99691 7.67729C7.72034 7.97945 6.94077 8.70948 6.94077 10.195C6.94077 11.6805 8.0222 13.1155 8.17306 13.317C8.32391 13.5184 10.3013 16.5668 13.3286 17.8739C14.0487 18.1851 14.6108 18.3707 15.0492 18.5098C15.7722 18.7395 16.43 18.707 16.9501 18.6294C17.53 18.5426 18.7355 17.8992 18.9872 17.1943C19.2387 16.4893 19.2387 15.8851 19.1631 15.7591C19.0878 15.6332 18.8865 15.5578 18.5848 15.4067Z"/>
    </symbol>
    <symbol id="icon-star" viewBox="0 0 16 15">
        <path d="M7.52447 0.463526C7.67415 0.0028708 8.32585 0.00286996 8.47553 0.463525L9.90837 4.87336C9.97531 5.07937 10.1673 5.21885 10.3839 5.21885H15.0207C15.505 5.21885 15.7064 5.83865 15.3146 6.12336L11.5633 8.84878C11.3881 8.9761 11.3148 9.20179 11.3817 9.4078L12.8145 13.8176C12.9642 14.2783 12.437 14.6613 12.0451 14.3766L8.29389 11.6512C8.11865 11.5239 7.88135 11.5239 7.70611 11.6512L3.95488 14.3766C3.56303 14.6613 3.03578 14.2783 3.18546 13.8176L4.6183 9.4078C4.68524 9.20179 4.61191 8.9761 4.43667 8.84878L0.685441 6.12336C0.293584 5.83866 0.494972 5.21885 0.979333 5.21885H5.6161C5.83272 5.21885 6.02469 5.07937 6.09163 4.87336L7.52447 0.463526Z"/>
    </symbol>
    <symbol id="icon-time" viewBox="0 0 16 16">
        <path d="M8 0C3.58862 0 0 3.58862 0 8C0 12.4114 3.58862 16 8 16C12.4114 16 16 12.4114 16 8C16 3.58862 12.4114 0 8 0ZM11.8047 12.1379C11.6747 12.2679 11.504 12.3334 11.3334 12.3334C11.1627 12.3334 10.9919 12.2679 10.8621 12.1379L7.52869 8.80469C7.40332 8.68005 7.33337 8.51062 7.33337 8.33337V4C7.33337 3.63135 7.63196 3.33337 8 3.33337C8.36804 3.33337 8.66663 3.63135 8.66663 4V8.05737L11.8047 11.1953C12.0653 11.4561 12.0653 11.8773 11.8047 12.1379Z" fill="white"/>
    </symbol>
    <symbol id="icon-user-default" viewBox="0 0 60 60">
        <mask id="mask0" mask-type="alpha" maskUnits="userSpaceOnUse" x="0" y="0" width="60" height="60">
            <circle cx="30" cy="30" r="30" fill="#F7F7F7"/>
        </mask>
        <g mask="url(#mask0)">
            <circle cx="30.0007" cy="70.5634" r="31.6901" fill="#E3E3E3"/>
        </g>
        <circle cx="30.0006" cy="23.6619" r="10.9859" fill="#E3E3E3"/>
    </symbol>
    <symbol id="icon-view-type-1" viewBox="0 0 25 25">
        <path d="M5.8036 9.82153H1.33916C0.967259 9.82153 0.650964 9.95171 0.39052 10.2122C0.130124 10.4724 0 10.7886 0 11.1608V13.8396C0 14.2115 0.130124 14.5276 0.39052 14.7879C0.650964 15.0483 0.967259 15.1785 1.33916 15.1785H5.8036C6.17551 15.1785 6.4918 15.0483 6.75225 14.7879C7.01269 14.5276 7.14277 14.2115 7.14277 13.8396V11.1608C7.14277 10.7886 7.01269 10.4724 6.75225 10.2122C6.4918 9.95185 6.17551 9.82153 5.8036 9.82153Z"/>
        <path d="M5.8036 2.67847H1.33916C0.967259 2.67847 0.650964 2.80859 0.39052 3.06903C0.130124 3.32948 0 3.64577 0 4.01767V6.69643C0 7.06858 0.130124 7.38497 0.39052 7.64522C0.650964 7.90552 0.967259 8.03584 1.33916 8.03584H5.8036C6.17551 8.03584 6.4918 7.90552 6.75225 7.64522C7.01269 7.38492 7.14277 7.06873 7.14277 6.69658V4.01787C7.14277 3.64597 7.01269 3.32967 6.75225 3.06908C6.4918 2.80874 6.17551 2.67847 5.8036 2.67847Z"/>
        <path d="M5.8036 16.9644H1.33916C0.967259 16.9644 0.650964 17.0944 0.39052 17.355C0.130124 17.6155 0 17.9317 0 18.3036V20.9826C0 21.3545 0.130124 21.6709 0.39052 21.9311C0.650964 22.1916 0.967259 22.3215 1.33916 22.3215H5.8036C6.17551 22.3215 6.4918 22.1914 6.75225 21.9311C7.01269 21.6709 7.14277 21.3545 7.14277 20.9826V18.3036C7.14277 17.9317 7.01269 17.6155 6.75225 17.3551C6.4918 17.0948 6.17551 16.9644 5.8036 16.9644Z"/>
        <path d="M23.6606 9.82153H10.2679C9.89582 9.82153 9.57967 9.95171 9.31923 10.2122C9.05879 10.4726 8.92871 10.7886 8.92871 11.1608V13.8396C8.92871 14.2115 9.05879 14.5276 9.31923 14.7879C9.57953 15.0483 9.89582 15.1785 10.2679 15.1785H23.661C24.0328 15.1785 24.3492 15.0483 24.6094 14.7879C24.87 14.5276 25.0001 14.2115 25.0001 13.8396V11.1608C25.0001 10.7886 24.87 10.4724 24.6093 10.2122C24.3489 9.95171 24.0329 9.82153 23.6606 9.82153Z"/>
        <path d="M23.6606 16.9644H10.2679C9.89582 16.9644 9.57967 17.0944 9.31923 17.355C9.05879 17.6155 8.92871 17.9316 8.92871 18.3034V20.9823C8.92871 21.3542 9.05879 21.6707 9.31923 21.9311C9.57953 22.1914 9.89582 22.3213 10.2679 22.3213H23.661C24.0328 22.3213 24.3492 22.1913 24.6094 21.9311C24.87 21.6706 25.0001 21.3542 25.0001 20.9823V18.3034C25.0001 17.9316 24.87 17.6152 24.6093 17.355C24.3489 17.0948 24.0329 16.9644 23.6606 16.9644Z"/>
        <path d="M24.6093 3.06928C24.3489 2.80898 24.0328 2.67871 23.6606 2.67871H10.2679C9.89582 2.67871 9.57967 2.80883 9.31923 3.06928C9.05879 3.32972 8.92871 3.64602 8.92871 4.01792V6.69667C8.92871 7.06882 9.05879 7.38482 9.31923 7.64531C9.57953 7.90561 9.89582 8.03593 10.2679 8.03593H23.661C24.0328 8.03593 24.3489 7.90561 24.6094 7.64531C24.87 7.38502 25.0001 7.06882 25.0001 6.69667V4.01792C25.0001 3.64597 24.87 3.32972 24.6093 3.06928Z"/>
    </symbol>
    <symbol id="icon-view-type-2" viewBox="0 0 25 25">
        <path d="M5.8036 9.82153H1.33916C0.967259 9.82153 0.650964 9.95171 0.39052 10.2122C0.130124 10.4724 0 10.7886 0 11.1608V13.8396C0 14.2115 0.130124 14.5276 0.39052 14.7879C0.650964 15.0483 0.967259 15.1785 1.33916 15.1785H5.8036C6.17551 15.1785 6.4918 15.0483 6.75225 14.7879C7.01269 14.5276 7.14277 14.2115 7.14277 13.8396V11.1608C7.14277 10.7886 7.01269 10.4724 6.75225 10.2122C6.4918 9.95185 6.17551 9.82153 5.8036 9.82153Z"/>
        <path d="M14.3349 9.82153H9.87041C9.49851 9.82153 9.18221 9.95171 8.92177 10.2122C8.66137 10.4724 8.53125 10.7886 8.53125 11.1608V13.8396C8.53125 14.2115 8.66137 14.5276 8.92177 14.7879C9.18221 15.0483 9.49851 15.1785 9.87041 15.1785H14.3349C14.7068 15.1785 15.0231 15.0483 15.2835 14.7879C15.5439 14.5276 15.674 14.2115 15.674 13.8396V11.1608C15.674 10.7886 15.5439 10.4724 15.2835 10.2122C15.0231 9.95185 14.7068 9.82153 14.3349 9.82153Z"/>
        <path d="M22.8671 9.82153H18.4026C18.0307 9.82153 17.7144 9.95171 17.454 10.2122C17.1936 10.4724 17.0635 10.7886 17.0635 11.1608V13.8396C17.0635 14.2115 17.1936 14.5276 17.454 14.7879C17.7144 15.0483 18.0307 15.1785 18.4026 15.1785H22.8671C23.239 15.1785 23.5553 15.0483 23.8157 14.7879C24.0762 14.5276 24.2062 14.2115 24.2062 13.8396V11.1608C24.2062 10.7886 24.0762 10.4724 23.8157 10.2122C23.5553 9.95185 23.239 9.82153 22.8671 9.82153Z"/>
        <path d="M5.8036 2.67847H1.33916C0.967259 2.67847 0.650964 2.80859 0.39052 3.06903C0.130124 3.32948 0 3.64577 0 4.01767V6.69643C0 7.06858 0.130124 7.38497 0.39052 7.64522C0.650964 7.90552 0.967259 8.03584 1.33916 8.03584H5.8036C6.17551 8.03584 6.4918 7.90552 6.75225 7.64522C7.01269 7.38492 7.14277 7.06873 7.14277 6.69658V4.01787C7.14277 3.64597 7.01269 3.32967 6.75225 3.06908C6.4918 2.80874 6.17551 2.67847 5.8036 2.67847Z"/>
        <path d="M14.3349 2.67847H9.87041C9.49851 2.67847 9.18221 2.80859 8.92177 3.06903C8.66137 3.32948 8.53125 3.64577 8.53125 4.01767V6.69643C8.53125 7.06858 8.66137 7.38497 8.92177 7.64522C9.18221 7.90552 9.49851 8.03584 9.87041 8.03584H14.3349C14.7068 8.03584 15.0231 7.90552 15.2835 7.64522C15.5439 7.38492 15.674 7.06873 15.674 6.69658V4.01787C15.674 3.64597 15.5439 3.32967 15.2835 3.06908C15.0231 2.80874 14.7068 2.67847 14.3349 2.67847Z"/>
        <path d="M22.8671 2.67847H18.4026C18.0307 2.67847 17.7144 2.80859 17.454 3.06903C17.1936 3.32948 17.0635 3.64577 17.0635 4.01767V6.69643C17.0635 7.06858 17.1936 7.38497 17.454 7.64522C17.7144 7.90552 18.0307 8.03584 18.4026 8.03584H22.8671C23.239 8.03584 23.5553 7.90552 23.8157 7.64522C24.0762 7.38492 24.2062 7.06873 24.2062 6.69658V4.01787C24.2062 3.64597 24.0762 3.32967 23.8157 3.06908C23.5553 2.80874 23.239 2.67847 22.8671 2.67847Z"/>
        <path d="M5.8036 16.9644H1.33916C0.967259 16.9644 0.650964 17.0944 0.39052 17.355C0.130124 17.6155 0 17.9317 0 18.3036V20.9826C0 21.3545 0.130124 21.6709 0.39052 21.9311C0.650964 22.1916 0.967259 22.3215 1.33916 22.3215H5.8036C6.17551 22.3215 6.4918 22.1914 6.75225 21.9311C7.01269 21.6709 7.14277 21.3545 7.14277 20.9826V18.3036C7.14277 17.9317 7.01269 17.6155 6.75225 17.3551C6.4918 17.0948 6.17551 16.9644 5.8036 16.9644Z"/>
        <path d="M14.3349 16.9644H9.87041C9.49851 16.9644 9.18221 17.0944 8.92177 17.355C8.66137 17.6155 8.53125 17.9317 8.53125 18.3036V20.9826C8.53125 21.3545 8.66137 21.6709 8.92177 21.9311C9.18221 22.1916 9.49851 22.3215 9.87041 22.3215H14.3349C14.7068 22.3215 15.0231 22.1914 15.2835 21.9311C15.5439 21.6709 15.674 21.3545 15.674 20.9826V18.3036C15.674 17.9317 15.5439 17.6155 15.2835 17.3551C15.0231 17.0948 14.7068 16.9644 14.3349 16.9644Z"/>
        <path d="M22.8671 16.9644H18.4026C18.0307 16.9644 17.7144 17.0944 17.454 17.355C17.1936 17.6155 17.0635 17.9317 17.0635 18.3036V20.9826C17.0635 21.3545 17.1936 21.6709 17.454 21.9311C17.7144 22.1916 18.0307 22.3215 18.4026 22.3215H22.8671C23.239 22.3215 23.5553 22.1914 23.8157 21.9311C24.0762 21.6709 24.2062 21.3545 24.2062 20.9826V18.3036C24.2062 17.9317 24.0762 17.6155 23.8157 17.3551C23.5553 17.0948 23.239 16.9644 22.8671 16.9644Z"/>
    </symbol>
    <symbol id="icon-wapp" viewBox="0 0 17 17">
        <path fill-rule="evenodd" clip-rule="evenodd" d="M14.5231 2.47052C12.925 0.878223 10.7997 0.000933837 8.53555 0C3.86998 0 0.0728768 3.77883 0.0710001 8.42332C0.0703746 9.90802 0.460093 11.3573 1.20085 12.6348L0 17L4.48719 15.8286C5.72359 16.4998 7.11555 16.8535 8.53211 16.8539H8.53566C13.2007 16.8539 16.9982 13.0748 17 8.43007C17.0009 6.1791 16.1213 4.06271 14.5231 2.47052ZM8.53555 15.4313H8.53263C7.27027 15.4307 6.0322 15.0931 4.95187 14.4553L4.69508 14.3035L2.03231 14.9987L2.74305 12.415L2.57571 12.1501C1.87144 11.0353 1.49955 9.74678 1.50018 8.42384C1.50164 4.56346 4.65776 1.42275 8.53837 1.42275C10.4175 1.42338 12.184 2.1526 13.5122 3.47606C14.8405 4.79951 15.5716 6.55865 15.5709 8.42955C15.5693 12.2902 12.4133 15.4313 8.53555 15.4313ZM12.3946 10.1873C12.1831 10.0819 11.1433 9.57288 10.9493 9.50253C10.7556 9.43228 10.6145 9.39732 10.4736 9.60795C10.3326 9.81858 9.9273 10.2928 9.80386 10.4331C9.68042 10.5736 9.55718 10.5913 9.34564 10.4859C9.1341 10.3805 8.45267 10.1582 7.64477 9.4411C7.01609 8.88298 6.59165 8.1937 6.46821 7.98307C6.34497 7.77223 6.46716 7.6693 6.561 7.5535C6.78995 7.27055 7.01921 6.9739 7.08969 6.83351C7.16028 6.69302 7.12493 6.57007 7.07197 6.46475C7.01921 6.35944 6.59624 5.32339 6.42004 4.90182C6.24822 4.49155 6.07401 4.54696 5.9441 4.54053C5.82087 4.53441 5.6798 4.53316 5.53874 4.53316C5.39778 4.53316 5.16862 4.58577 4.9747 4.79661C4.78089 5.00734 4.23457 5.51649 4.23457 6.55253C4.23457 7.58857 4.99243 8.58944 5.09814 8.72993C5.20386 8.87042 6.58956 10.9965 8.71112 11.9081C9.21574 12.1252 9.60962 12.2545 9.91687 12.3516C10.4236 12.5118 10.8845 12.4891 11.249 12.435C11.6554 12.3745 12.5002 11.9257 12.6766 11.4341C12.8528 10.9424 12.8528 10.521 12.7998 10.4331C12.7471 10.3454 12.606 10.2928 12.3946 10.1873Z"/>
    </symbol>
    <symbol id="icon-product-next" viewBox="0 0 16 16">
        <path d="M12.4444 7.37568L5.32424 0.255608C5.15956 0.090796 4.93973 0 4.70532 0C4.47092 0 4.25108 0.090796 4.0864 0.255608L3.56205 0.779831C3.22085 1.12142 3.22085 1.6766 3.56205 2.01767L9.54105 7.99668L3.55541 13.9823C3.39073 14.1471 3.2998 14.3668 3.2998 14.6011C3.2998 14.8357 3.39073 15.0554 3.55541 15.2203L4.07977 15.7444C4.24458 15.9092 4.46428 16 4.69869 16C4.93309 16 5.15293 15.9092 5.31761 15.7444L12.4444 8.61782C12.6095 8.45248 12.7002 8.23174 12.6997 7.99707C12.7002 7.7615 12.6095 7.54088 12.4444 7.37568Z"/>
    </symbol>
    <symbol id="icon-product-prev" viewBox="0 0 16 16">
        <path d="M3.55555 7.37568L10.6758 0.255608C10.8404 0.090796 11.0603 0 11.2947 0C11.5291 0 11.7489 0.090796 11.9136 0.255608L12.438 0.779831C12.7792 1.12142 12.7792 1.6766 12.438 2.01767L6.45895 7.99668L12.4446 13.9823C12.6093 14.1471 12.7002 14.3668 12.7002 14.6011C12.7002 14.8357 12.6093 15.0554 12.4446 15.2203L11.9202 15.7444C11.7554 15.9092 11.5357 16 11.3013 16C11.0669 16 10.8471 15.9092 10.6824 15.7444L3.55555 8.61782C3.39048 8.45248 3.29982 8.23174 3.30034 7.99707C3.29982 7.7615 3.39048 7.54088 3.55555 7.37568Z"/>
    </symbol>
</svg>